<svg id="4xxW7ZDmCL" viewBox="0 0 369.65517241379314 60.805473962488264" height="60.805473962488264" width="369.65517241379314" style="width: 369.655px; height: 60.8055px; position: absolute; top: 50%; left: 50%; transform: translate(-50%, -50%) scale(0.61368); z-index: 0; cursor: pointer; overflow: visible;"><defs id="SvgjsDefs1069"></defs><g id="SvgjsG1070" featurekey="Df7oLJ-0" transform="matrix(0.7677459120750427,0,0,0.7677459120750427,-8.214881122105156,-7.984557201784915)" fill="#ffffff"><rect xmlns="http://www.w3.org/2000/svg" x="5" y="61.3" transform="matrix(0.7071 0.7071 -0.7071 0.7071 54.9988 -8.2329)" width="64.8" height="2"></rect><rect xmlns="http://www.w3.org/2000/svg" x="13.2" y="53.1" transform="matrix(0.7071 0.7071 -0.7071 0.7071 51.6111 -16.4154)" width="64.8" height="2"></rect><rect xmlns="http://www.w3.org/2000/svg" x="22.2" y="44.1" transform="matrix(0.7071 0.7071 -0.7071 0.7071 47.8822 -25.4167)" width="64.8" height="2"></rect><rect xmlns="http://www.w3.org/2000/svg" x="30.4" y="35.9" transform="matrix(0.7071 0.7071 -0.7071 0.7071 44.4926 -33.5993)" width="64.8" height="2"></rect><rect xmlns="http://www.w3.org/2000/svg" x="36.4" y="5.3" transform="matrix(0.7071 0.7071 -0.7071 0.7071 37.6412 -15.4227)" width="2" height="64.8"></rect><rect xmlns="http://www.w3.org/2000/svg" x="44.6" y="13.5" transform="matrix(0.7071 0.7071 -0.7071 0.7071 45.8244 -18.812)" width="2" height="64.8"></rect><rect xmlns="http://www.w3.org/2000/svg" x="53.6" y="22.5" transform="matrix(0.7071 0.7071 -0.7071 0.7071 54.8257 -22.5406)" width="2" height="64.8"></rect><rect xmlns="http://www.w3.org/2000/svg" x="61.8" y="30.7" transform="matrix(0.7071 0.7071 -0.7071 0.7071 63.0078 -25.9298)" width="2" height="64.8"></rect><circle xmlns="http://www.w3.org/2000/svg" cx="14" cy="39.6" r="3.3"></circle><circle xmlns="http://www.w3.org/2000/svg" cx="22.6" cy="31" r="3.3"></circle><circle xmlns="http://www.w3.org/2000/svg" cx="31.3" cy="22.4" r="3.3"></circle><circle xmlns="http://www.w3.org/2000/svg" cx="39.9" cy="13.7" r="3.3"></circle><circle xmlns="http://www.w3.org/2000/svg" cx="60.1" cy="14.3" r="3.3"></circle><circle xmlns="http://www.w3.org/2000/svg" cx="68.7" cy="22.9" r="3.3"></circle><circle xmlns="http://www.w3.org/2000/svg" cx="77.4" cy="31.6" r="3.3"></circle><circle xmlns="http://www.w3.org/2000/svg" cx="86" cy="40.2" r="3.3"></circle><circle xmlns="http://www.w3.org/2000/svg" cx="86" cy="59.8" r="3.3"></circle><circle xmlns="http://www.w3.org/2000/svg" cx="77.4" cy="68.4" r="3.3"></circle><circle xmlns="http://www.w3.org/2000/svg" cx="68.7" cy="77.1" r="3.3"></circle><circle xmlns="http://www.w3.org/2000/svg" cx="60.1" cy="85.7" r="3.3"></circle><circle xmlns="http://www.w3.org/2000/svg" cx="60.1" cy="85.7" r="3.3"></circle><circle xmlns="http://www.w3.org/2000/svg" cx="14" cy="60.4" r="3.3"></circle><circle xmlns="http://www.w3.org/2000/svg" cx="22.6" cy="69" r="3.3"></circle><circle xmlns="http://www.w3.org/2000/svg" cx="31.3" cy="77.6" r="3.3"></circle><circle xmlns="http://www.w3.org/2000/svg" cx="39.9" cy="86.3" r="3.3"></circle></g><g id="SvgjsG1071" featurekey="Ua4uQk-0" transform="matrix(2.0207560062408447,0,0,2.0207560062408447,78.78754556730085,4.3604453473752685)" fill="#ffffff"><path d="M10.14 6 l0 9.26 c0 3.7 -3.14 4.98 -5.08 4.98 c-2.24 0 -3.56 -0.86 -4.46 -1.94 l1.92 -2.38 c0.48 0.52 1.32 1.22 2.36 1.22 c0.58 0 2.04 -0.22 2.04 -2.32 l0 -8.82 l3.22 0 z M17.52 9.42 c2.36 0 5.66 1.78 5 6.48 l-7.26 0 c0.36 1.08 1.3 1.64 2.56 1.64 c1.28 0 1.68 -0.28 2.4 -0.58 l1.74 1.68 c-0.92 0.9 -2.16 1.56 -4.26 1.56 c-2.58 0 -5.66 -1.78 -5.66 -5.36 c0 -3.64 3.12 -5.42 5.48 -5.42 z M17.52 12.120000000000001 c-0.9 0 -1.82 0.52 -2.22 1.56 l4.42 0 c-0.32 -1.04 -1.3 -1.56 -2.2 -1.56 z M38.22 9.44 c2.22 0 4.18 1.44 4.18 4.96 l0 5.6 l-3.16 0 l0 -5.5 c0 -1.32 -0.56 -2.32 -2.02 -2.32 c-1.22 0 -2.04 1.08 -2.28 2.04 l0 5.78 l-3.16 0 l0 -5.5 c0 -1.32 -0.82 -2.32 -2.02 -2.32 c-1.3 0 -2.08 0.88 -2.28 2.04 l0 5.78 l-3.16 0 l0 -10.4 l3.16 0 l0 1.9 c0.04 -0.48 1.06 -2.06 3.1 -2.06 c1.5 0 2.94 0.8 3.8 2.26 c0.24 -0.56 1.44 -2.26 3.84 -2.26 z M49.48 9.42 c2.36 0 5.48 1.78 5.48 5.42 c0 3.66 -3.12 5.36 -5.48 5.36 s-5.48 -1.7 -5.48 -5.36 c0 -3.64 3.12 -5.42 5.48 -5.42 z M49.48 12.2 c-1.2 0 -2.42 0.92 -2.42 2.64 c0 1.66 1.22 2.58 2.42 2.58 s2.44 -0.92 2.44 -2.58 c0 -1.72 -1.24 -2.64 -2.44 -2.64 z M61.519999999999996 5.76 c2.52 0 4.06 1.56 4.82 2.88 l-2.36 1.42 c-0.78 -1 -1.46 -1.46 -2.46 -1.46 c-0.86 0 -1.5 0.5 -1.5 1.2 c0 0.72 0.4 1.08 1.4 1.42 l0.94 0.34 c3.26 1.14 4.38 2.58 4.38 4.44 c0 2.92 -2.76 4.3 -5.16 4.3 c-2.56 0 -4.52 -1.52 -5.22 -3.46 l2.46 -1.32 c0.5 0.9 1.24 1.88 2.76 1.88 c1.04 0 1.82 -0.42 1.82 -1.36 c0 -0.86 -0.48 -1.26 -1.98 -1.82 l-0.8 -0.28 c-2.06 -0.74 -3.8 -1.72 -3.8 -4.28 c0 -2.28 2.16 -3.9 4.7 -3.9 z M71.62 5.859999999999999 l0 2.66 l-3.16 0 l0 -2.66 l3.16 0 z M71.62 9.6 l0 10.4 l-3.16 0 l0 -10.4 l3.16 0 z M78.6 12.879999999999999 c-0.28 -0.72 -0.7 -0.96 -1.16 -0.96 c-0.42 0 -0.84 0.24 -0.84 0.64 c0 0.38 0.24 0.6 0.7 0.76 l1.32 0.46 c1.48 0.54 2.98 1.08 2.98 3.16 c0 2.1 -2.1 3.3 -4.26 3.3 c-1.94 0 -3.76 -1.14 -4.2 -2.96 l2.48 -0.78 c0.26 0.58 0.72 1.24 1.72 1.24 c0.68 0 1.12 -0.44 1.12 -0.84 c0 -0.2 -0.16 -0.46 -0.66 -0.66 l-1.22 -0.44 c-2.08 -0.76 -3.06 -1.82 -3.06 -3.3 c0 -1.94 1.8 -3.08 3.78 -3.08 c2.02 0 3.36 1.1 3.96 2.76 z M88.28 17.36 c0.56 0 0.96 -0.08 1.4 -0.2 l0 2.62 c-0.44 0.2 -1.16 0.34 -2.22 0.34 c-1.74 0 -3.2 -0.58 -3.2 -3.78 l0 -4.14 l-1.46 0 l0 -2.6 l1.46 0 l0 -2.44 l3.16 0 l0 2.44 l2.22 0 l0 2.6 l-2.22 0 l0 4.14 c0 0.46 0.12 1.02 0.86 1.02 z M96.52000000000001 9.42 c2.36 0 5.66 1.78 5 6.48 l-7.26 0 c0.36 1.08 1.3 1.64 2.56 1.64 c1.28 0 1.68 -0.28 2.4 -0.58 l1.74 1.68 c-0.92 0.9 -2.16 1.56 -4.26 1.56 c-2.58 0 -5.66 -1.78 -5.66 -5.36 c0 -3.64 3.12 -5.42 5.48 -5.42 z M96.52000000000001 12.120000000000001 c-0.9 0 -1.82 0.52 -2.22 1.56 l4.42 0 c-0.32 -1.04 -1.3 -1.56 -2.2 -1.56 z M117.22000000000001 9.44 c2.22 0 4.18 1.44 4.18 4.96 l0 5.6 l-3.16 0 l0 -5.5 c0 -1.32 -0.56 -2.32 -2.02 -2.32 c-1.22 0 -2.04 1.08 -2.28 2.04 l0 5.78 l-3.16 0 l0 -5.5 c0 -1.32 -0.82 -2.32 -2.02 -2.32 c-1.3 0 -2.08 0.88 -2.28 2.04 l0 5.78 l-3.16 0 l0 -10.4 l3.16 0 l0 1.9 c0.04 -0.48 1.06 -2.06 3.1 -2.06 c1.5 0 2.94 0.8 3.8 2.26 c0.24 -0.56 1.44 -2.26 3.84 -2.26 z M130.8 9.6 l3.16 0 l0 10.4 l-3.16 0 l0 -1.04 c-0.14 0.36 -1.08 1.24 -2.68 1.24 c-2.38 0 -5.12 -1.7 -5.12 -5.42 c0 -3.58 2.74 -5.36 5.12 -5.36 c1.6 0 2.54 0.92 2.68 1.14 l0 -0.96 z M128.58 17.42 c1.3 0 2.36 -0.9 2.36 -2.64 c0 -1.68 -1.06 -2.58 -2.36 -2.58 c-1.36 0 -2.52 0.92 -2.52 2.58 c0 1.72 1.16 2.64 2.52 2.64 z M140.94000000000003 12.879999999999999 c-0.28 -0.72 -0.7 -0.96 -1.16 -0.96 c-0.42 0 -0.84 0.24 -0.84 0.64 c0 0.38 0.24 0.6 0.7 0.76 l1.32 0.46 c1.48 0.54 2.98 1.08 2.98 3.16 c0 2.1 -2.1 3.3 -4.26 3.3 c-1.94 0 -3.76 -1.14 -4.2 -2.96 l2.48 -0.78 c0.26 0.58 0.72 1.24 1.72 1.24 c0.68 0 1.12 -0.44 1.12 -0.84 c0 -0.2 -0.16 -0.46 -0.66 -0.66 l-1.22 -0.44 c-2.08 -0.76 -3.06 -1.82 -3.06 -3.3 c0 -1.94 1.8 -3.08 3.78 -3.08 c2.02 0 3.36 1.1 3.96 2.76 z"></path></g></svg>